<svg version="1.1" xmlns="http://www.w3.org/2000/svg" xmlns:xlink="http://www.w3.org/1999/xlink" width="32px" height="32px" viewBox="0,0,256,256"><g fill="#0a58ca" fill-rule="nonzero" stroke="none" stroke-width="1" stroke-linecap="butt" stroke-linejoin="miter" stroke-miterlimit="10" stroke-dasharray="" stroke-dashoffset="0" font-family="none" font-weight="none" font-size="none" text-anchor="none" style="mix-blend-mode: normal"><g transform="scale(8,8)"><g id="Layer_17"><path d="M24,31h-16c-1.65685,0 -3,-1.34315 -3,-3v-19c0,-0.55228 0.44772,-1 1,-1c0.55228,0 1,0.44772 1,1v19c0,0.55228 0.44772,1 1,1h16c0.55228,0 1,-0.44772 1,-1v-19c0,-0.55228 0.44772,-1 1,-1c0.55228,0 1,0.44772 1,1v19c0,1.65685 -1.34315,3 -3,3z"></path><path d="M28,7h-24c-0.55228,0 -1,-0.44772 -1,-1c0,-0.55228 0.44772,-1 1,-1h24c0.55228,0 1,0.44772 1,1c0,0.55228 -0.44772,1 -1,1z"></path><path d="M20,7c-0.55228,0 -1,-0.44772 -1,-1v-3h-6v3c0,0.55228 -0.44772,1 -1,1c-0.55228,0 -1,-0.44772 -1,-1v-4c0,-0.55228 0.44772,-1 1,-1h8c0.55228,0 1,0.44772 1,1v4c0,0.55228 -0.44772,1 -1,1z"></path><path d="M16,26c-0.55228,0 -1,-0.44772 -1,-1v-14c0,-0.55228 0.44772,-1 1,-1c0.55228,0 1,0.44772 1,1v14c0,0.55228 -0.44772,1 -1,1z"></path><path d="M21,24c-0.55228,0 -1,-0.44772 -1,-1v-10c0,-0.55228 0.44772,-1 1,-1c0.55228,0 1,0.44772 1,1v10c0,0.55228 -0.44772,1 -1,1z"></path><path d="M11,24c-0.55228,0 -1,-0.44772 -1,-1v-10c0,-0.55228 0.44772,-1 1,-1c0.55228,0 1,0.44772 1,1v10c0,0.55228 -0.44772,1 -1,1z"></path></g></g></g></svg>