<svg version="1.1" xmlns="http://www.w3.org/2000/svg" xmlns:xlink="http://www.w3.org/1999/xlink" width="32px" height="32px" viewBox="0,0,256,256"><g fill="#0a58ca" fill-rule="nonzero" stroke="none" stroke-width="1" stroke-linecap="butt" stroke-linejoin="miter" stroke-miterlimit="10" stroke-dasharray="" stroke-dashoffset="0" font-family="none" font-weight="none" font-size="none" text-anchor="none" style="mix-blend-mode: normal"><g transform="translate(0.0243,-0.002) scale(8,8)"><g id="Layer_42"><path d="M2,29c-0.28542,0.00173 -0.55798,-0.11858 -0.74903,-0.33065c-0.19105,-0.21206 -0.28237,-0.49566 -0.25097,-0.77935l0.77,-7c0.02741,-0.22373 0.1296,-0.43164 0.29,-0.59l16.36,-16.36c0.6003,-0.6015 1.4152,-0.93952 2.265,-0.93952c0.8498,0 1.6647,0.33802 2.265,0.93952l3.11,3.11c0.6015,0.6003 0.93952,1.4152 0.93952,2.265c0,0.8498 -0.33802,1.6647 -0.93952,2.265l-16.35,16.35c-0.15836,0.1604 -0.36627,0.26259 -0.59,0.29l-7,0.77zM9,27.22zM3.73,21.45l-0.6,5.42l5.42,-0.6l16.1,-16.1c0.22595,-0.22516 0.35295,-0.53102 0.35295,-0.85c0,-0.31898 -0.127,-0.62484 -0.35295,-0.85l-3.12,-3.12c-0.22516,-0.22595 -0.53102,-0.35295 -0.85,-0.35295c-0.31898,0 -0.62484,0.127 -0.85,0.35295z"></path><path d="M23,14.21c-0.2658,0.00154 -0.52128,-0.10281 -0.71,-0.29l-6.21,-6.23c-0.39212,-0.39212 -0.39212,-1.02788 0,-1.42c0.39212,-0.39212 1.02788,-0.39212 1.42,0l6.23,6.23c0.18931,0.18777 0.2958,0.44336 0.2958,0.71c0,0.26664 -0.10649,0.52223 -0.2958,0.71c-0.19359,0.19219 -0.4573,0.29695 -0.73,0.29z"></path><rect x="-8.47748" y="20.21536" transform="rotate(-45)" width="11.01" height="2"></rect><path d="M30,29h-16c-0.55228,0 -1,-0.44772 -1,-1c0,-0.55228 0.44772,-1 1,-1h16c0.55228,0 1,0.44772 1,1c0,0.55228 -0.44772,1 -1,1z"></path></g></g></g></svg>